<?xml version="1.0" encoding="UTF-8"?>
<svg width="14px" height="14px" viewBox="0 0 14 14" version="1.1" xmlns="http://www.w3.org/2000/svg" xmlns:xlink="http://www.w3.org/1999/xlink">
    <!-- Generator: Sketch 61.2 (89653) - https://sketch.com -->
    <title>Shape</title>
    <desc>Created with Sketch.</desc>
    <g id="SIMBOLOS" stroke="none" stroke-width="1" fill="none" fill-rule="evenodd">
        <g id="header" transform="translate(-1386.000000, -60.000000)" fill="#FFFFFF" fill-rule="nonzero">
            <path d="M1399.82857,73.0057143 L1396.46286,69.64 C1397.29714,68.6228571 1397.8,67.32 1397.8,65.9 C1397.8,62.6428571 1395.15714,60 1391.9,60 C1388.64,60 1386,62.6428571 1386,65.9 C1386,69.1571429 1388.64,71.8 1391.9,71.8 C1393.32,71.8 1394.62,71.3 1395.63714,70.4657143 L1399.00286,73.8285714 C1399.23143,74.0571429 1399.6,74.0571429 1399.82857,73.8285714 C1400.05714,73.6028571 1400.05714,73.2314286 1399.82857,73.0057143 Z M1391.9,70.6257143 C1389.29143,70.6257143 1387.17143,68.5057143 1387.17143,65.9 C1387.17143,63.2942857 1389.29143,61.1714286 1391.9,61.1714286 C1394.50571,61.1714286 1396.62857,63.2942857 1396.62857,65.9 C1396.62857,68.5057143 1394.50571,70.6257143 1391.9,70.6257143 Z" id="Shape"></path>
        </g>
    </g>
</svg>