<?xml version="1.0" encoding="UTF-8"?>
<svg width="18px" height="20px" viewBox="0 0 18 20" version="1.1" xmlns="http://www.w3.org/2000/svg" xmlns:xlink="http://www.w3.org/1999/xlink">
    <!-- Generator: Sketch 61.2 (89653) - https://sketch.com -->
    <title>calendario</title>
    <desc>Created with Sketch.</desc>
    <g id="SIMBOLOS" stroke="none" stroke-width="1" fill="none" fill-rule="evenodd">
        <g id="input_calendario" transform="translate(-375.000000, -31.000000)">
            <g id="calendario" transform="translate(375.000000, 31.000000)">
                <polygon id="Path" points="16.9997981 5.99978198 2 5.99978198 2 6 17 6 17 3 16.9997981 3"></polygon>
                <path d="M4.9285391,16 C4.41664207,16 4,15.5750418 4,15.0529274 C4,14.530813 4.41664207,14.1058548 4.9285391,14.1058548 C5.44043613,14.1058548 5.85707819,14.530813 5.85707819,15.0529274 C5.85688138,15.5750418 5.44043613,16 4.9285391,16 Z M4.9285391,11.8941452 C4.41664207,11.8941452 4,11.469187 4,10.9470726 C4,10.4249582 4.41664207,10 4.9285391,10 C5.44043613,10 5.85707819,10.4249582 5.85707819,10.9470726 C5.85688138,11.4693878 5.44043613,11.8941452 4.9285391,11.8941452 Z M8.9999016,16 C8.48800457,16 8.0713625,15.5750418 8.0713625,15.0529274 C8.0713625,14.530813 8.48800457,14.1058548 8.9999016,14.1058548 C9.51179863,14.1058548 9.92844069,14.530813 9.92844069,15.0529274 C9.92844069,15.5750418 9.51199543,16 8.9999016,16 Z M8.9999016,11.8941452 C8.48800457,11.8941452 8.0713625,11.469187 8.0713625,10.9470726 C8.0713625,10.4249582 8.48800457,10 8.9999016,10 C9.51179863,10 9.92844069,10.4249582 9.92844069,10.9470726 C9.92844069,11.4693878 9.51199543,11.8941452 8.9999016,11.8941452 Z M13.0714609,16 C12.5595639,16 12.1429218,15.5750418 12.1429218,15.0529274 C12.1429218,14.530813 12.5595639,14.1058548 13.0714609,14.1058548 C13.5833579,14.1058548 14,14.530813 14,15.0529274 C14,15.5750418 13.5833579,16 13.0714609,16 Z M13.0714609,11.8941452 C12.5595639,11.8941452 12.1429218,11.469187 12.1429218,10.9470726 C12.1429218,10.4249582 12.5595639,10 13.0714609,10 C13.5833579,10 14,10.4249582 14,10.9470726 C14,11.4693878 13.5833579,11.8941452 13.0714609,11.8941452 Z" id="Shape" fill="#575757" fill-rule="nonzero"></path>
                <circle id="Oval" fill="#575757" fill-rule="nonzero" cx="5" cy="11" r="1"></circle>
                <ellipse id="Oval" fill="#575757" fill-rule="nonzero" transform="translate(13.047811, 10.634680) rotate(-9.218364) translate(-13.047811, -10.634680) " cx="13.0478111" cy="10.6346796" rx="1" ry="1"></ellipse>
                <circle id="Oval" fill="#575757" fill-rule="nonzero" cx="9" cy="11" r="1"></circle>
                <circle id="Oval" fill="#575757" fill-rule="nonzero" cx="5" cy="15" r="1"></circle>
                <ellipse id="Oval" fill="#575757" fill-rule="nonzero" transform="translate(13.047895, 14.725528) rotate(-9.218364) translate(-13.047895, -14.725528) " cx="13.0478954" cy="14.7255283" rx="1" ry="1"></ellipse>
                <circle id="Oval" fill="#575757" fill-rule="nonzero" cx="9" cy="15" r="1"></circle>
                <path d="M13.8094287,1.2698 L13.8094287,0 L12.0797044,0 L12.0797044,1.2698 L5.92009588,1.2698 L5.92009588,0 L4.19037155,0 L4.19037155,1.2698 L0,1.2698 L0,20 L18,20 L18,1.2698 L13.8094287,1.2698 Z M16.4196964,18.4178 L1.58030364,18.4178 L1.58030364,7.186 L16.4192968,7.186 L16.4194966,7.186 L16.4194966,18.4178 L16.4196964,18.4178 Z M16.4196964,5.604 L1.58030364,5.604 L1.58030364,5.6038 L1.58030364,2.852 L4.19057131,2.852 L4.19057131,4.5576 L5.92009588,4.5576 L5.92009588,2.852 L5.92029565,2.852 L12.0797044,2.852 L12.0797044,4.5576 L13.8092289,4.5576 L13.8092289,2.852 L13.8094287,2.852 L16.4194966,2.852 L16.4196964,2.852 L16.4196964,5.604 L16.4196964,5.604 Z" id="Shape" fill="#575757" fill-rule="nonzero"></path>
                <rect id="Rectangle" fill="#575757" fill-rule="nonzero" x="13.95" y="3" width="1" height="2"></rect>
                <rect id="Rectangle" fill="#575757" fill-rule="nonzero" x="5.95" y="3" width="1" height="2"></rect>
            </g>
        </g>
    </g>
</svg>