<?xml version="1.0" encoding="UTF-8"?>
<svg width="21px" height="25px" viewBox="0 0 21 25" version="1.1" xmlns="http://www.w3.org/2000/svg" xmlns:xlink="http://www.w3.org/1999/xlink">
    <!-- Generator: Sketch 61.2 (89653) - https://sketch.com -->
    <title>Contacto</title>
    <desc>Created with Sketch.</desc>
    <g id="Directorio-Electrónico" stroke="none" stroke-width="1" fill="none" fill-rule="evenodd">
        <g id="Resultados-de-la-búsqueda" transform="translate(-907.000000, -539.000000)" fill="#2D2D30">
            <g id="Contacto" transform="translate(907.000000, 539.000000)">
                <path d="M14.0268534,12.8855242 C14.7062158,13.0207541 15.3901709,13.1389578 16.0609522,13.3098326 C17.7263025,13.7337735 18.5377665,15.0041262 19.1002559,16.5145611 C19.5930081,17.8383199 19.8659134,19.2142597 20.0607421,20.6085733 C20.0910783,20.8252596 20.4431478,23.5111168 20.454699,24.6338681 C20.4574095,24.9102075 20.3772783,25.0007282 20.093979,24.9998708 C16.5085022,24.990684 14.7360686,24.9938687 11.1505919,24.9938687 C7.55508362,24.9938687 3.95957538,24.990439 0.364067137,25.0001218 C0.0671104749,25.0009732 -0.0114494887,24.9114324 0.00148268994,24.6179443 C0.0933374166,22.5254328 0.294088339,20.4456604 0.746472868,18.400063 C0.975021931,17.3662401 1.31295064,16.3665921 1.79615484,15.4159405 C2.38571715,14.2563195 3.31683402,13.5643686 4.5365681,13.2539767 C5.15864215,13.0957186 5.79606561,12.9983383 6.42756685,12.8789097" id="Fill-1"></path>
                <path d="M15.1404141,5.24242746 C15.0575914,6.61505353 14.8406974,7.96597328 14.3938321,9.26584743 C13.9224616,10.6374001 12.9546265,11.5322488 11.5876403,11.9187881 C10.4131609,12.2509424 9.23196612,12.1913097 8.12193049,11.6151383 C6.92282811,10.9925726 6.18296144,9.9912199 5.90138798,8.66630001 C5.6894421,7.66864452 5.50376855,6.6631175 5.36427777,5.65281987 C5.24387271,4.7811087 5.28875953,3.90224159 5.6133348,3.06964948 C6.1226411,1.76321574 7.08882686,0.913568672 8.34989896,0.400727235 C9.43378007,-0.0399586039 10.5671427,-0.0933895257 11.7047466,0.125224045 C12.2469228,0.229462048 12.7389106,0.454754484 12.8890045,1.09151272 C12.9037312,1.15388855 13.0409835,1.23570465 13.1127317,1.22783313 C14.0776215,1.12216394 14.4501468,1.77526155 14.7314846,2.52460638 C15.0594765,3.39810653 15.19343,4.30690927 15.1404141,5.24242746" id="Fill-3"></path>
            </g>
        </g>
    </g>
</svg>