<?xml version="1.0" encoding="UTF-8"?>
<svg width="27px" height="27px" viewBox="0 0 27 27" version="1.1" xmlns="http://www.w3.org/2000/svg" xmlns:xlink="http://www.w3.org/1999/xlink">
    <!-- Generator: Sketch 61.2 (89653) - https://sketch.com -->
    <title>editar</title>
    <desc>Created with Sketch.</desc>
    <defs>
        <polygon id="path-1" points="0 0 27 0 27 27 0 27"></polygon>
    </defs>
    <g id="SIMBOLOS" stroke="none" stroke-width="1" fill="none" fill-rule="evenodd">
        <g id="editar">
            <g>
                <mask id="mask-2" fill="white">
                    <use xlink:href="#path-1"></use>
                </mask>
                <g id="Clip-2"></g>
                <path d="M19.6433745,2.82079005 C21.1614402,4.33864881 22.6679588,5.84483561 24.2116289,7.38842293 C24.2663521,7.31738703 24.3224559,7.22664684 24.3953783,7.15247332 C24.7691525,6.77231835 25.1544739,6.40358435 25.521345,6.01702862 C25.7826606,5.74154491 25.7855474,5.38812252 25.5163245,5.11652947 C24.3101557,3.89875341 23.0979624,2.6868761 21.8802465,1.48077201 C21.6190564,1.22198048 21.2642344,1.21432467 21.0036718,1.46257377 C20.5361402,1.9079914 20.088565,2.37411737 19.6433745,2.82079005 M18.6847151,3.78680286 C18.6377737,3.82947459 18.5821719,3.87616249 18.5309631,3.92736858 C12.8807966,9.57635346 7.23150871,15.2262169 1.57895751,20.8725662 C1.37148644,21.0797751 1.28274957,21.3058098 1.28484574,21.5983622 C1.29442217,22.8637047 1.28864862,24.1290472 1.28965272,25.3943897 C1.28965272,25.4945428 1.29868957,25.5946958 1.30421209,25.7101605 C2.66099508,25.7101605 3.98815727,25.7007476 5.31494292,25.7165521 C5.67804867,25.720703 5.94463582,25.6077484 6.20130753,25.3507139 C11.8013948,19.7403846 17.4077576,14.136456 23.0148736,8.53315501 C23.088298,8.45986003 23.1865737,8.41154056 23.2578645,8.36221705 C21.7070402,6.81084842 20.2079268,5.31081138 18.6847151,3.78680286 M0.00190124443,23.5436914 C0.00190124443,22.8640812 0.00491352858,22.1844711 0.00102266156,21.5048609 C-0.00236615811,20.9197561 0.204979401,20.4291566 0.619419495,20.0151153 C7.08315372,13.5547399 13.5445032,7.09197986 20.0079864,0.631478952 C20.8501709,-0.210283804 22.0052563,-0.210785824 22.8539674,0.631729962 C24.0337787,1.80294362 25.2094481,2.97867547 26.3807246,4.15842348 C27.2063414,4.99002032 27.206969,6.15395469 26.3793439,6.98191188 C19.9113423,13.4528297 13.4405794,19.9209864 6.97232676,26.3916533 C6.5656684,26.7982898 6.08043963,26.998596 5.50910974,26.998596 C4.12885604,26.9984705 2.74860234,27.0036162 1.36834864,26.9949563 C0.520516165,26.9895596 0.010812585,26.4680859 0.00315636283,25.6141491 C-0.00311922915,24.9239965 0.00190124443,24.233844 0.00190124443,23.5436914" id="Fill-1" fill="#03A8A0" mask="url(#mask-2)"></path>
                <path d="M17.035919,25.0002696 C19.1063139,25.0002696 21.1765845,24.9992963 23.2469794,25.001243 C23.709221,25.0016324 24.0023468,25.3977961 24,26.0045983 C23.9976249,26.593101 23.7134458,26.9906275 23.2689732,26.9943263 C22.2442134,27.0026973 21.2193294,26.9993878 20.1945697,26.9991932 C17.1097285,26.9988038 14.0248874,26.9978304 10.9399219,26.9970517 C10.8777927,26.9970517 10.8156635,26.9984145 10.7536585,26.9964677 C10.288559,26.9830351 9.99655151,26.5927116 10,25.9899976 C10.00351,25.388257 10.2982511,25.0014377 10.7627293,25.0010483 C12.8538754,24.9992963 14.9448972,25.0002696 17.035919,25.0002696" id="Fill-4" fill="#03A8A0" mask="url(#mask-2)"></path>
            </g>
        </g>
    </g>
</svg>