<?xml version="1.0" encoding="UTF-8"?>
<svg width="22px" height="27px" viewBox="0 0 22 27" version="1.1" xmlns="http://www.w3.org/2000/svg" xmlns:xlink="http://www.w3.org/1999/xlink">
    <!-- Generator: Sketch 61.2 (89653) - https://sketch.com -->
    <title>eliminar</title>
    <desc>Created with Sketch.</desc>
    <g id="SIMBOLOS" stroke="none" stroke-width="1" fill="none" fill-rule="evenodd">
        <g id="eliminar" fill="#02A8A0" fill-rule="nonzero">
            <g transform="translate(0.000000, 0.000000)">
                <path d="M18.5486295,3.23482419 L14.3908459,3.23482419 C14.1834384,1.41685512 12.6532407,0 10.7999723,0 C8.94675932,0 7.41678308,1.41679916 7.2093756,3.23482419 L3.05137048,3.23482419 C1.36874543,3.23482419 0,4.61877085 0,6.31954547 L0,6.47781953 C0,7.77753618 0.800617248,8.88998796 1.92845773,9.34326295 L1.92845773,23.9152787 C1.92845773,25.6161093 3.29736926,27 4.97988357,27 L16.6201718,27 C18.3027415,27 19.6715423,25.6159974 19.6715423,23.9152787 L19.6715423,9.34331891 C20.7993274,8.88998796 21.6,7.77753618 21.6,6.4778755 L21.6,6.31960143 C21.6,4.61877085 20.2311438,3.23482419 18.5486295,3.23482419 Z M10.7999723,1.46291579 C11.8540076,1.46291579 12.7338007,2.22658256 12.9284736,3.23482419 L8.67185859,3.23482419 C8.86647613,2.2265266 9.74632458,1.46291579 10.7999723,1.46291579 Z M18.2242854,23.9152787 C18.2242854,24.809516 17.504505,25.5371402 16.6201164,25.5371402 L4.97982821,25.5371402 C4.0954396,25.5371402 3.37565922,24.80946 3.37565922,23.9152787 L3.37565922,9.56254081 L18.2242854,9.56254081 L18.2242854,23.9152787 Z M20.1527985,6.47781953 C20.1527985,7.37205682 19.4329628,8.09968099 18.5485742,8.09968099 L3.05137048,8.09968099 C2.16698187,8.09968099 1.44720149,7.37205682 1.44720149,6.47781953 L1.44720149,6.31954547 C1.44720149,5.42530818 2.16698187,4.69768401 3.05137048,4.69768401 L18.5486295,4.69768401 C19.4330181,4.69768401 20.1527985,5.42530818 20.1527985,6.31954547 L20.1527985,6.47781953 L20.1527985,6.47781953 Z" id="Shape"></path>
                <g id="Group-4" transform="translate(6.646154, 11.630769)">
                    <path d="M0.830769231,11.6307692 C1.28960252,11.6307692 1.66153846,11.2379358 1.66153846,10.7536895 L1.66153846,0.877213916 C1.66153846,0.392900556 1.28953896,0 0.830769231,0 C0.371999506,0 0,0.392900556 0,0.877213916 L0,10.7536895 C-6.35679264e-05,11.23807 0.371935938,11.6307692 0.830769231,11.6307692 Z" id="Path"></path>
                    <path d="M4.15381437,11.6307692 C4.61263011,11.6307692 4.98461538,11.2379358 4.98461538,10.7536895 L4.98461538,0.877213916 C4.98461538,0.392900556 4.61250298,0 4.15381437,0 C3.6950622,0 3.32307692,0.392900556 3.32307692,0.877213916 L3.32307692,10.7536895 C3.32307692,11.23807 3.69499863,11.6307692 4.15381437,11.6307692 Z" id="Path"></path>
                    <path d="M7.47698664,11.6307692 C7.93575637,11.6307692 8.30769231,11.2379358 8.30769231,10.7536895 L8.30769231,0.877213916 C8.30769231,0.392900556 7.9356928,0 7.47698664,0 C7.01808978,0 6.64615385,0.392900556 6.64615385,0.877213916 L6.64615385,10.7536895 C6.64609028,11.23807 7.01821692,11.6307692 7.47698664,11.6307692 Z" id="Path"></path>
                </g>
            </g>
        </g>
    </g>
</svg>