<?xml version="1.0" encoding="UTF-8"?>
<svg width="23px" height="25px" viewBox="0 0 23 25" version="1.1" xmlns="http://www.w3.org/2000/svg" xmlns:xlink="http://www.w3.org/1999/xlink">
    <!-- Generator: Sketch 61.2 (89653) - https://sketch.com -->
    <title>Funcionario</title>
    <desc>Created with Sketch.</desc>
    <g id="Directorio-Electrónico" stroke="none" stroke-width="1" fill="none" fill-rule="evenodd">
        <g id="Resultados-de-la-búsqueda" transform="translate(-906.000000, -408.000000)" fill="#2D2D30">
            <g id="Funcionario" transform="translate(906.000000, 408.000000)">
                <path d="M15.1750852,24.0725402 C17.1895235,24.0725402 19.2039619,24.0690062 21.2184002,24.0767811 C21.4789974,24.0778413 21.5845063,24.0071602 21.5746149,23.7431663 C21.5567858,23.2628882 21.5599609,22.7814321 21.5713177,22.3008005 C21.5773014,22.0483512 21.4809513,21.9564657 21.2146146,21.9568181 C17.1654665,21.9625914 13.1163184,21.962827 9.06704824,21.956937 C8.81585403,21.9565836 8.75223119,22.0550659 8.75589469,22.2724103 C8.76383228,22.7531596 8.77189199,23.2347335 8.74991097,23.7147761 C8.73672236,24.0015057 8.84027738,24.0799618 9.13189225,24.0784303 C11.1462085,24.0674748 13.1606468,24.072658 15.1750852,24.0725402 M11.2662493,24.9938685 C7.63339728,24.9938685 4.00054528,24.9906878 0.367693289,25 C0.0676523686,25.0008188 -0.0117235363,24.9145878 0.00134295879,24.6324524 C0.0941517092,22.6200435 0.296987675,20.6197682 0.754070771,18.6524775 C0.984993596,17.6583477 1.3264321,16.6969669 1.81465498,15.7827068 C2.41034062,14.6674767 3.35112826,14.0020141 4.58353078,13.7035043 C5.21206583,13.5513043 5.85610971,13.4576518 6.49416987,13.342795 C6.74463138,13.2977947 6.80874268,13.415361 6.83719589,13.6517893 C6.97066953,14.7613648 7.11012689,15.871176 7.28988278,16.9743902 C7.48233882,18.1553537 7.72205406,19.3288957 7.94223061,20.5057361 C7.96201352,20.6116399 7.99583987,20.7154233 8.0120814,20.8217984 C8.04200001,21.0167605 8.16118599,21.0667084 8.35339779,21.0708315 C9.11858152,21.0867347 9.11418531,21.0916824 9.17866297,20.3608398 C9.29406333,19.0507655 9.41996572,17.7415158 9.52926024,16.4309703 C9.54745564,16.2118589 9.64014227,16.1415312 9.85262546,16.1480103 C10.1372797,16.1567276 10.4230329,16.1592015 10.7071987,16.1449475 C10.9285964,16.1337563 11.0089492,16.2162176 11.0267783,16.4276719 C11.1314323,17.6697745 11.2480539,18.9109347 11.3601571,20.1523305 C11.3655302,20.2109958 11.3649196,20.2700146 11.3680947,20.3287977 C11.410225,21.1053474 11.5292888,21.2032408 12.3264671,21.0720095 C12.4176884,21.0569309 12.5453004,20.9457259 12.562641,20.861262 C12.7845272,19.7849066 13.0016508,18.7073731 13.1948395,17.6258344 C13.3880283,16.5441779 13.5555725,15.4579271 13.7283677,14.3728543 C13.7653691,14.1406669 13.8050571,13.9031784 13.7918684,13.6707554 C13.7751385,13.3771932 13.9142295,13.3002686 14.1723843,13.3491563 C14.8588027,13.4790918 15.5498616,13.5928883 16.2276097,13.7572219 C17.9102567,14.1649341 18.7301488,15.386657 19.2984803,16.8392715 C19.7963504,18.1122382 20.07209,19.4356241 20.2689423,20.7765625 C20.2995936,20.984954 20.3848311,21.0704781 20.5975585,21.0684755 C21.106297,21.0638812 21.615524,21.0786064 22.123774,21.0631744 C22.3936521,21.0550461 22.5039235,21.1257272 22.5,21.4084516 C22.4851176,22.4879877 22.4870714,23.567995 22.4986725,24.6477666 C22.5014812,24.9135276 22.4205178,25.0005832 22.1342761,24.9997585 C18.5115598,24.9909234 14.8889656,24.9938685 11.2662493,24.9938685" id="Fill-1"></path>
                <path d="M14.9885723,5.40612767 C14.9044754,6.8216483 14.6842445,8.2147843 14.2305044,9.55527951 C13.751882,10.9696932 12.7691571,11.8925059 11.3811404,12.2911246 C10.1885921,12.6336587 8.98922509,12.5721624 7.86211199,11.9779857 C6.64456188,11.3359649 5.89331264,10.3033199 5.60740728,8.93699623 C5.39220069,7.90816401 5.20367063,6.87121427 5.06203383,5.82934484 C4.9397764,4.93039269 4.98535378,4.02406099 5.31492251,3.16545038 C5.8320643,1.81819058 6.81311445,0.941992043 8.09358767,0.413124311 C9.19414387,-0.0413329605 10.3449428,-0.0964335985 11.5000484,0.129011646 C12.0505657,0.236507087 12.5501225,0.468839912 12.7025256,1.12549685 C12.7174788,1.18982192 12.8568428,1.27419477 12.9296948,1.26607727 C13.9094291,1.15710592 14.2876854,1.83061282 14.5733515,2.60337467 C14.9063894,3.50417171 15.0424038,4.44137453 14.9885723,5.40612767" id="Fill-3"></path>
                <path d="M11.6666667,13.3333333 C11.4950632,13.8445488 11.3501428,14.3120212 11.1757242,14.7675522 C11.1381477,14.8657226 10.994696,14.9220355 10.897756,14.9944378 C10.8841697,15.0046194 10.8579763,14.9978317 10.8376581,14.9972032 C9.6123215,14.9646473 9.94622603,15.2111419 9.46348429,14.080359 C9.36323949,13.8451773 9.27425541,13.6049676 9.16666667,13.3333333 L11.6666667,13.3333333 Z" id="Fill-5"></path>
            </g>
        </g>
    </g>
</svg>