<?xml version="1.0" encoding="UTF-8"?>
<svg width="27px" height="27px" viewBox="0 0 27 27" version="1.1" xmlns="http://www.w3.org/2000/svg" xmlns:xlink="http://www.w3.org/1999/xlink">
    <!-- Generator: Sketch 61.2 (89653) - https://sketch.com -->
    <title>guardar</title>
    <desc>Created with Sketch.</desc>
    <defs>
        <polygon id="path-1" points="0 0 27 0 27 27 0 27"></polygon>
    </defs>
    <g id="SIMBOLOS" stroke="none" stroke-width="1" fill="none" fill-rule="evenodd">
        <g id="guardar">
            <g>
                <mask id="mask-2" fill="white">
                    <use xlink:href="#path-1"></use>
                </mask>
                <g id="Clip-2"></g>
                <path d="M6.7646769,8.66310193 L20.2470161,8.66310193 L20.2470161,1.93497892 L6.7646769,1.93497892 L6.7646769,8.66310193 Z M6.75430958,25.0570776 L20.231224,25.0570776 L20.231224,15.4475227 L6.75430958,15.4475227 L6.75430958,25.0570776 Z M25.074496,25.0659985 L25.074496,24.8006637 C25.074496,18.0311914 25.0755355,11.2615985 25.067097,4.49200562 C25.0668559,4.35349147 24.9888599,4.18303106 24.8910937,4.0816469 C24.2840027,3.45333031 23.6426754,2.85720108 23.051497,2.21490047 C22.7871303,1.92774581 22.5128785,1.8863965 22.1741323,1.94594914 C22.1741323,4.46789524 22.1743734,6.97718338 22.1738912,9.48647152 C22.1737706,10.2308796 21.8058513,10.6042289 21.0707359,10.6043494 C16.0288425,10.6048317 10.9868286,10.6049522 5.9448147,10.6043494 C5.18402211,10.6043494 4.82225083,10.2393182 4.82213028,9.47598351 C4.82200973,7.07555374 4.82200973,4.67500343 4.82200973,2.27457367 L4.82200973,1.9430559 L1.94025617,1.9430559 L1.94025617,25.0575598 L4.82213028,25.0575598 L4.82213028,24.6803529 C4.82200973,21.3256341 4.82164808,17.971036 4.82188918,14.6164378 C4.82200973,13.8756463 5.19221953,13.5048286 5.93191582,13.5048286 C10.9639241,13.5045875 15.9958118,13.504708 21.0276995,13.5050697 C21.8140487,13.5051902 22.1738912,13.8613006 22.1740117,14.6401865 C22.1744939,17.9947847 22.1743734,21.3495034 22.1744939,24.7041016 L22.1744939,25.0659985 L25.074496,25.0659985 Z M13.4948764,27 C9.38616249,26.9996512 5.27744855,26.9996512 1.16873461,26.9995306 C0.345255897,26.9995306 0,26.6530644 0,25.8261988 C0,17.5885247 0,9.35085062 0,1.11317651 C0,0.528017502 0.244596444,0.161539676 0.724024761,0.0384561694 C0.838668042,0.00904150175 0.962232042,0.00446052892 1.08157678,0.00446052892 C8.39487784,0.00277280209 15.7081789,0.00385776934 23.02148,-1.24344979e-14 C23.3637221,-1.24344979e-14 23.6488234,0.100660958 23.8890801,0.342608655 C24.7954973,1.25470446 25.6990214,2.1696935 26.6136361,3.07335067 C26.8823426,3.33868544 27,3.63572536 27,4.0126912 C26.9950571,11.3059616 26.9965037,18.5993525 26.9962626,25.8926229 C26.9962626,26.6297979 26.6234007,27 25.8812934,27 C21.7524475,27 17.6237223,27 13.4948764,27 L13.4948764,27 Z" id="Fill-1" fill="#03A8A0" mask="url(#mask-2)"></path>
                <path d="M13.1426156,19.1833366 C12.1973446,19.1834697 11.2521958,19.1854664 10.307047,19.1829373 C9.66819525,19.1810737 9.22853434,18.7326239 9.23696117,18.0990171 C9.24514375,17.4847113 9.68480466,17.0542314 10.3111993,17.053699 C12.2016191,17.0523678 14.0920389,17.0522347 15.9824587,17.0535658 C16.6066551,17.0540983 17.0454611,17.487906 17.0525445,18.1042084 C17.0597501,18.736351 16.61899,19.1812068 15.9781842,19.1825379 C15.0330354,19.1846677 14.0877644,19.1832035 13.1426156,19.1833366" id="Fill-3" fill="#03A8A0" mask="url(#mask-2)"></path>
                <path d="M13.1763071,19.8954274 C14.111321,19.8954274 15.0463349,19.8935636 15.9812267,19.8959599 C16.6075004,19.8976905 17.0453302,20.3294179 17.0525358,20.9452584 C17.0601078,21.5769409 16.6180035,22.0247765 15.9785399,22.025309 C14.0882388,22.0267734 12.1979376,22.0266403 10.3076364,22.0249096 C9.68233976,22.024244 9.24438784,21.591851 9.23693801,20.9757442 C9.22936606,20.3441949 9.67085971,19.8974243 10.3104454,19.8959599 C11.2657326,19.8938299 12.2210198,19.8954274 13.1763071,19.8954274" id="Fill-4" fill="#03A8A0" mask="url(#mask-2)"></path>
            </g>
        </g>
    </g>
</svg>