<?xml version="1.0" encoding="UTF-8"?>
<svg width="25px" height="25px" viewBox="0 0 25 25" version="1.1" xmlns="http://www.w3.org/2000/svg" xmlns:xlink="http://www.w3.org/1999/xlink">
    <!-- Generator: Sketch 61.2 (89653) - https://sketch.com -->
    <title>Institucion</title>
    <desc>Created with Sketch.</desc>
    <defs>
        <polygon id="path-1" points="0 0.0247851938 24.8787938 0.0247851938 24.8787938 5.15562257 0 5.15562257"></polygon>
        <polygon id="path-3" points="0.0278421546 0.0878404669 22.4729979 0.0878404669 22.4729979 6.64119274 0.0278421546 6.64119274"></polygon>
    </defs>
    <g id="Directorio-Electrónico" stroke="none" stroke-width="1" fill="none" fill-rule="evenodd">
        <g id="Resultados-de-la-búsqueda" transform="translate(-905.000000, -452.000000)">
            <g id="Institucion" transform="translate(905.000000, 452.000000)">
                <g id="Group-3" transform="translate(0.000000, 19.756518)">
                    <mask id="mask-2" fill="white">
                        <use xlink:href="#path-1"></use>
                    </mask>
                    <g id="Clip-2"></g>
                    <path d="M24.8788619,2.60912451 L24.8788619,5.15562257 L-2.91828794e-05,5.15562257 L-2.91828794e-05,2.60659533 C0.355223735,2.60659533 0.708142023,2.60824903 1.06106031,2.60620623 C1.75113813,2.6022179 1.67720817,2.70970817 1.67818093,1.98694553 C1.67886187,1.43577821 1.68761673,0.884610895 1.67642996,0.333832685 C1.67166342,0.104163424 1.74462062,0.0244941634 1.98246109,0.0247851938 C7.19286965,0.0306225681 12.4031809,0.0293579767 17.6134922,0.0293579767 C19.3638813,0.0292607004 21.1141732,0.0288715953 22.864465,0.028385214 C23.1810019,0.0282879377 23.195107,0.0398638132 23.1957879,0.353385214 C23.1971498,0.952996109 23.1967607,1.55270428 23.196177,2.15231518 C23.1956907,2.60892996 23.195107,2.60902724 23.6407296,2.60912451 L24.8788619,2.60912451 Z" id="Fill-1" fill="#000000" mask="url(#mask-2)"></path>
                </g>
                <g id="Group-6" transform="translate(1.167315, 0.009436)">
                    <mask id="mask-4" fill="white">
                        <use xlink:href="#path-3"></use>
                    </mask>
                    <g id="Clip-5"></g>
                    <path d="M11.2484047,6.62984436 C7.7318677,6.62984436 4.21533074,6.62984436 0.698793774,6.62984436 C0.59344358,6.62984436 0.473015564,6.66087549 0.386342412,6.62031128 C0.252198444,6.55766537 0.0816731518,6.46729572 0.0381906615,6.34793774 C-0.000719844358,6.24122568 0.0763229572,6.04745136 0.165525292,5.9501751 C0.274766537,5.83101167 0.447529183,5.76749027 0.597042802,5.68791829 C4.03799611,3.85815175 7.48157588,2.03305447 10.917179,0.193268482 C11.1823541,0.0512451362 11.3656226,0.053385214 11.6306031,0.195311284 C15.130214,2.06933852 18.6381907,3.92809339 22.1425681,5.79326848 C22.2476265,5.84920233 22.3823541,5.9140856 22.4234047,6.00922179 C22.4751556,6.12955253 22.4971401,6.31719844 22.4359533,6.41700389 C22.3707782,6.5235214 22.1948054,6.617393 22.0652335,6.62011673 C21.2066732,6.63830739 20.3476265,6.63110895 19.4887743,6.63120623 C16.7420817,6.63149805 13.9951946,6.6313035 11.2484047,6.6313035 L11.2484047,6.62984436 Z" id="Fill-4" fill="#000000" mask="url(#mask-4)"></path>
                </g>
                <path d="M6.0570428,18.5553405 C5.48155642,18.5554377 4.90607004,18.550963 4.33068093,18.5580336 C4.14478599,18.5603016 4.0668677,18.4982393 4.07455253,18.3045623 C4.0861284,18.0132198 4.08359922,17.7209047 4.0738716,17.429465 C4.06793774,17.2511576 4.13593385,17.1792704 4.31424125,17.1856907 C4.83992218,17.2048541 4.77367704,17.1995039 4.77406615,16.7070914 C4.77581712,14.3890953 4.77601167,12.0710019 4.77620623,9.75290856 C4.7763035,9.41467899 4.77523346,9.41467899 4.43865759,9.41448444 C4.07824903,9.41428988 4.0779572,9.41428988 4.07766537,9.05329767 C4.07737354,8.78588521 4.0816537,8.51827821 4.07659533,8.25096304 C4.07367704,8.10485409 4.1377821,8.04726654 4.28,8.04746109 C5.47143969,8.04882296 6.66297665,8.04843385 7.85431907,8.0465851 C7.99595331,8.04639105 8.0605255,8.10290856 8.05830739,8.24960117 C8.05344358,8.56565175 8.05315175,8.88189689 8.05976654,9.19785019 C8.06307393,9.35378405 7.99984436,9.410107 7.8451751,9.41681907 C7.35811284,9.43792802 7.36015564,9.44269455 7.36025292,9.94434825 C7.36044747,12.2461965 7.35928016,14.548142 7.3590856,16.849893 C7.35898833,17.1870525 7.36005837,17.1870525 7.69566148,17.1889981 C8.05723735,17.1911381 8.05714008,17.1911381 8.05694553,17.5476556 C8.05684825,17.7989202 8.04799611,18.0506712 8.05976654,18.3013521 C8.06881323,18.4913327 7.99770428,18.5604961 7.80772374,18.5580336 C7.2242607,18.5503794 6.64060311,18.5552432 6.0570428,18.5553405" id="Fill-7" fill="#000000"></path>
                <path d="M17.5161673,13.319893 C17.5161673,12.1206712 17.5095525,10.9214494 17.5215175,9.7223249 C17.5240467,9.46950389 17.4372763,9.40043774 17.1981712,9.40928988 C16.8208366,9.42310311 16.8201556,9.4104572 16.8198638,9.02144942 C16.8196693,8.77018482 16.8246304,8.51892023 16.8181128,8.26785019 C16.8142218,8.11512646 16.8717121,8.04557393 17.0292996,8.04586484 C18.2203502,8.04868677 19.4114008,8.04878405 20.6025486,8.04761673 C20.7477821,8.04751946 20.8042023,8.11327821 20.8017704,8.25569066 C20.7968093,8.56357004 20.7921401,8.87174125 20.8020623,9.17932879 C20.8081907,9.36580739 20.7245331,9.4186284 20.5541051,9.41512646 C20.0597471,9.40500973 20.1007977,9.38662451 20.1007977,9.88000973 C20.1008949,12.189251 20.1017704,14.4984922 20.1025486,16.8077335 C20.1027432,17.1861381 20.1031323,17.1861381 20.4691829,17.1889591 C20.7980739,17.1914883 20.7985603,17.1914883 20.7993385,17.5085117 C20.8000195,17.7839981 20.7948638,18.0595817 20.8011868,18.3348735 C20.8045914,18.4883755 20.7452529,18.5570525 20.58893,18.5566651 C19.3978794,18.5541342 18.2067315,18.5538424 17.0155837,18.555107 C16.8689883,18.5553016 16.8153891,18.4874027 16.8175292,18.3461576 C16.822393,18.0303016 16.8246304,17.7141537 16.8183074,17.3982977 C16.815,17.2351654 16.8935992,17.1934339 17.0409728,17.1874027 C17.5183074,17.1674611 17.5182101,17.1634728 17.5182101,16.6743677 C17.5181128,15.556177 17.5181128,14.4379864 17.5181128,13.319893 L17.5161673,13.319893 Z" id="Fill-9" fill="#000000"></path>
                <path d="M12.4279767,18.5574222 C11.860856,18.5574222 11.2937354,18.5516829 10.7268093,18.5606338 C10.5279767,18.5636479 10.4475292,18.4936089 10.4545331,18.2928307 C10.4645525,18.0096595 10.4632879,17.7256128 10.4549222,17.4423444 C10.4493774,17.2540175 10.5248638,17.1820331 10.7134825,17.1867996 C11.2307977,17.1998346 11.161537,17.1895233 11.1618288,16.7188035 C11.1635798,14.4017802 11.1628016,12.0849514 11.1627043,9.76812257 C11.1627043,9.41617704 11.1621206,9.41617704 10.8168872,9.41384241 C10.4551167,9.41141051 10.4546304,9.41141051 10.4545331,9.04555447 C10.4545331,8.79448444 10.4614397,8.54321984 10.4554086,8.29224708 C10.4511284,8.1188035 10.5165953,8.04448444 10.6970428,8.0452566 C11.8554086,8.04964008 13.0137743,8.04944553 14.1723346,8.0452566 C14.3456809,8.04467899 14.4258366,8.10392023 14.4216537,8.28446498 C14.4149416,8.57590467 14.4150389,8.86783074 14.4227237,9.15927043 C14.4276848,9.34594358 14.3530739,9.41967899 14.1642607,9.4167607 C13.6468482,9.4089786 13.7164008,9.40878405 13.7157198,9.88679961 C13.7128988,12.2198735 13.7173735,14.5529475 13.7096887,16.8859241 C13.7089105,17.1230837 13.7866342,17.1963327 14.0166926,17.1907879 C14.4196109,17.1811576 14.42,17.1922471 14.4202918,17.5867023 C14.4205837,17.8296984 14.4149416,18.0729864 14.4224319,18.3156907 C14.4280739,18.4932198 14.355214,18.5602432 14.1776848,18.5583949 C13.5945136,18.5518774 13.0112451,18.5558658 12.4279767,18.5558658 L12.4279767,18.5574222 Z" id="Fill-11" fill="#000000"></path>
            </g>
        </g>
    </g>
</svg>