<?xml version="1.0" encoding="UTF-8"?>
<svg width="312px" height="50px" viewBox="0 0 312 50" version="1.1" xmlns="http://www.w3.org/2000/svg" xmlns:xlink="http://www.w3.org/1999/xlink">
    <!-- Generator: Sketch 61.2 (89653) - https://sketch.com -->
    <title>Group 2</title>
    <desc>Created with Sketch.</desc>
    <g id="Directorio-Electrónico" stroke="none" stroke-width="1" fill="none" fill-rule="evenodd">
        <g id="Login" transform="translate(-46.000000, -33.000000)">
            <g id="Group-2" transform="translate(46.000000, 33.000000)">
                <path d="M69.4444444,34.8503485 L69.4444444,17.2594643 L73.0461221,17.2594643 C75.6440665,17.2594643 77.5295161,17.4707282 78.7025274,17.8932623 C80.3872549,18.4911879 81.7039207,19.5275768 82.652564,21.00246 C83.6012073,22.4773433 84.0755219,24.2352183 84.0755219,26.2761378 C84.0755219,28.0380253 83.6996128,29.5886225 82.9477835,30.9279759 C82.1959541,32.2673294 81.2197715,33.2558849 80.0192062,33.8936723 C78.818641,34.5314596 77.1359068,34.8503485 74.9709531,34.8503485 L69.4444444,34.8503485 Z M71.1094823,33.1881235 L73.1169748,33.1881235 C75.5181052,33.1881235 77.1831264,33.0366513 78.1120884,32.7337023 C79.4189332,32.3031959 80.4462867,31.5278973 81.1941798,30.4077832 C81.9420729,29.2876692 82.3160138,27.9184401 82.3160138,26.3000547 C82.3160138,24.6019459 81.9105831,23.1510014 81.0997095,21.9471778 C80.288836,20.7433542 79.1591407,19.9182292 77.7105899,19.4717781 C76.6241768,19.1369397 74.8331965,18.969523 72.3375954,18.969523 L71.1094823,18.969523 L71.1094823,33.1881235 Z M87.7480522,16.4821648 C88.1259351,16.4821648 88.4487051,16.6176926 88.7163721,16.8887522 C88.9840391,17.1598118 89.1178706,17.486673 89.1178706,17.8693454 C89.1178706,18.2440454 88.9840391,18.5669204 88.7163721,18.83798 C88.4487051,19.1090397 88.1259351,19.2445674 87.7480522,19.2445674 C87.378042,19.2445674 87.0592081,19.1090397 86.7915411,18.83798 C86.5238741,18.5669204 86.3900426,18.2440454 86.3900426,17.8693454 C86.3900426,17.486673 86.5238741,17.1598118 86.7915411,16.8887522 C87.0592081,16.6176926 87.378042,16.4821648 87.7480522,16.4821648 Z M86.9214377,21.8395517 L88.5864756,21.8395517 L88.5864756,34.8503485 L86.9214377,34.8503485 L86.9214377,21.8395517 Z M91.3851562,21.8395517 L93.0738117,21.8395517 L93.0738117,23.7409457 C93.5776554,22.9915456 94.1090452,22.431497 94.6679969,22.0607831 C95.2269485,21.6900692 95.8095091,21.504715 96.4156962,21.504715 C96.8723046,21.504715 97.3603959,21.6522012 97.8799848,21.9471778 L97.0179439,23.3582752 C96.6715513,23.2068008 96.380271,23.1310646 96.1440943,23.1310646 C95.5930151,23.1310646 95.0616254,23.360266 94.5499091,23.8186757 C94.0381927,24.2770853 93.6485069,24.9886062 93.3808399,25.9532595 C93.1761534,26.6946873 93.0738117,28.1934651 93.0738117,30.4496378 L93.0738117,34.8503485 L91.3851562,34.8503485 L91.3851562,21.8395517 Z M110.102071,30.533347 L111.495507,31.2747711 C111.038899,32.183618 110.511445,32.9170625 109.913131,33.4751264 C109.314816,34.0331903 108.641723,34.4577112 107.89383,34.7487017 C107.145936,35.0396921 106.299649,35.1851852 105.354942,35.1851852 C103.260841,35.1851852 101.623374,34.4896088 100.44249,33.0984352 C99.2616061,31.7072615 98.671173,30.1347407 98.671173,28.3808255 C98.671173,26.7305507 99.171073,25.2596757 100.170888,23.9681563 C101.43837,22.3258539 103.134881,21.504715 105.260472,21.504715 C107.449043,21.504715 109.196725,22.3457845 110.50357,24.0279486 C111.432532,25.2158275 111.904878,26.6986609 111.920623,28.4764931 L100.371637,28.4764931 C100.403127,29.991238 100.87941,31.2329117 101.800499,32.2015512 C102.721589,33.1701907 103.859157,33.6545032 105.213237,33.6545032 C105.866659,33.6545032 106.502359,33.538906 107.120355,33.3077081 C107.73835,33.0765102 108.263836,32.7695796 108.696827,32.3869072 C109.129817,32.0042348 109.598228,31.3863876 110.102071,30.533347 Z M110.102071,27.0295203 C109.88164,26.136618 109.560838,25.4231041 109.139656,24.8889572 C108.718474,24.3548103 108.161499,23.9243103 107.468714,23.5974443 C106.775928,23.2705783 106.047728,23.1071477 105.284089,23.1071477 C104.02448,23.1071477 102.942019,23.5177172 102.036675,24.3388684 C101.37538,24.936794 100.87548,25.833669 100.53696,27.0295203 L110.102071,27.0295203 Z M127.472786,24.5421621 L126.162011,25.3672953 C125.028363,23.8445781 123.481428,23.0832308 121.521161,23.0832308 C119.954522,23.0832308 118.653601,23.5934531 117.618359,24.6139128 C116.583118,25.6343726 116.065505,26.8740531 116.065505,28.3329917 C116.065505,29.2817003 116.303646,30.1745892 116.779936,31.0116851 C117.256226,31.848781 117.909638,32.4985171 118.740193,32.9609129 C119.570748,33.4233088 120.501664,33.6545032 121.53297,33.6545032 C123.422384,33.6545032 124.965382,32.893156 126.162011,31.3704387 L127.472786,32.2434058 C126.858726,33.1761698 126.034088,33.8996489 124.998846,34.413865 C123.963605,34.928081 122.784707,35.1851852 121.462117,35.1851852 C119.430997,35.1851852 117.746294,34.531463 116.407959,33.2239989 C115.069624,31.9165349 114.400467,30.3260765 114.400467,28.4525762 C114.400467,27.1929462 114.713396,26.0230226 115.339265,24.9427703 C115.965133,23.8625179 116.825197,23.0194554 117.919483,22.4135575 C119.013769,21.8076595 120.237933,21.504715 121.592013,21.504715 C122.44225,21.504715 123.262952,21.6362567 124.054144,21.899344 C124.845336,22.1624313 125.516462,22.5052368 126.067541,22.9277709 C126.61862,23.3503051 127.08703,23.8884301 127.472786,24.5421621 Z M132.090018,17.0083368 L133.755056,17.0083368 L133.755056,21.8395517 L136.376605,21.8395517 L136.376605,23.2745661 L133.755056,23.2745661 L133.755056,34.8503485 L132.090018,34.8503485 L132.090018,23.2745661 L129.834541,23.2745661 L129.834541,21.8395517 L132.090018,21.8395517 L132.090018,17.0083368 Z M144.926161,21.504715 C146.902173,21.504715 148.539641,22.2301873 149.838613,23.6811535 C151.019497,25.0045622 151.60993,26.5711039 151.60993,28.3808255 C151.60993,30.1985194 150.986039,31.7869847 149.738239,33.146269 C148.490438,34.5055532 146.886428,35.1851852 144.926161,35.1851852 C142.958021,35.1851852 141.350075,34.5055532 140.102275,33.146269 C138.854474,31.7869847 138.230583,30.1985194 138.230583,28.3808255 C138.230583,26.5790762 138.821016,25.0165207 140.0019,23.6931119 C141.300872,22.2341734 142.942276,21.504715 144.926161,21.504715 Z M144.926161,23.1430231 C143.556336,23.1430231 142.379406,23.6572314 141.395336,24.6856635 C140.411266,25.7140956 139.919239,26.9577623 139.919239,28.4167008 C139.919239,29.3574372 140.143603,30.2343816 140.592339,31.0475605 C141.041075,31.8607393 141.647253,32.4885518 142.410891,32.9310168 C143.174529,33.3734818 144.012944,33.5947109 144.926161,33.5947109 C145.839378,33.5947109 146.677793,33.3734818 147.441431,32.9310168 C148.205069,32.4885518 148.811247,31.8607393 149.259983,31.0475605 C149.708719,30.2343816 149.933084,29.3574372 149.933084,28.4167008 C149.933084,26.9577623 149.439088,25.7140956 148.451082,24.6856635 C147.463076,23.6572314 146.288114,23.1430231 144.926161,23.1430231 Z M154.054348,21.8395517 L155.743003,21.8395517 L155.743003,23.7409457 C156.246847,22.9915456 156.778236,22.431497 157.337188,22.0607831 C157.89614,21.6900692 158.4787,21.504715 159.084887,21.504715 C159.541496,21.504715 160.029587,21.6522012 160.549176,21.9471778 L159.687135,23.3582752 C159.340743,23.2068008 159.049462,23.1310646 158.813286,23.1310646 C158.262206,23.1310646 157.730817,23.360266 157.2191,23.8186757 C156.707384,24.2770853 156.317698,24.9886062 156.050031,25.9532595 C155.845345,26.6946873 155.743003,28.1934651 155.743003,30.4496378 L155.743003,34.8503485 L154.054348,34.8503485 L154.054348,21.8395517 Z M162.533051,16.4821648 C162.910934,16.4821648 163.233704,16.6176926 163.501371,16.8887522 C163.769038,17.1598118 163.902869,17.486673 163.902869,17.8693454 C163.902869,18.2440454 163.769038,18.5669204 163.501371,18.83798 C163.233704,19.1090397 162.910934,19.2445674 162.533051,19.2445674 C162.163041,19.2445674 161.844207,19.1090397 161.57654,18.83798 C161.308873,18.5669204 161.175041,18.2440454 161.175041,17.8693454 C161.175041,17.486673 161.308873,17.1598118 161.57654,16.8887522 C161.844207,16.6176926 162.163041,16.4821648 162.533051,16.4821648 Z M161.706436,21.8395517 L163.371474,21.8395517 L163.371474,34.8503485 L161.706436,34.8503485 L161.706436,21.8395517 Z M172.877542,21.504715 C174.853554,21.504715 176.491022,22.2301873 177.789994,23.6811535 C178.970878,25.0045622 179.561311,26.5711039 179.561311,28.3808255 C179.561311,30.1985194 178.93742,31.7869847 177.689619,33.146269 C176.441819,34.5055532 174.837809,35.1851852 172.877542,35.1851852 C170.909402,35.1851852 169.301456,34.5055532 168.053655,33.146269 C166.805855,31.7869847 166.181964,30.1985194 166.181964,28.3808255 C166.181964,26.5790762 166.772397,25.0165207 167.953281,23.6931119 C169.252253,22.2341734 170.893657,21.504715 172.877542,21.504715 Z M172.877542,23.1430231 C171.507716,23.1430231 170.330786,23.6572314 169.346717,24.6856635 C168.362647,25.7140956 167.870619,26.9577623 167.870619,28.4167008 C167.870619,29.3574372 168.094984,30.2343816 168.54372,31.0475605 C168.992455,31.8607393 169.598633,32.4885518 170.362272,32.9310168 C171.12591,33.3734818 171.964325,33.5947109 172.877542,33.5947109 C173.790758,33.5947109 174.629173,33.3734818 175.392812,32.9310168 C176.15645,32.4885518 176.762628,31.8607393 177.211364,31.0475605 C177.660099,30.2343816 177.884464,29.3574372 177.884464,28.4167008 C177.884464,26.9577623 177.390468,25.7140956 176.402462,24.6856635 C175.414456,23.6572314 174.239494,23.1430231 172.877542,23.1430231 Z M182.915004,17.2594643 L192.869805,17.2594643 L192.869805,18.9934399 L184.650894,18.9934399 L184.650894,24.4943283 L192.798952,24.4943283 L192.798952,26.2163455 L184.650894,26.2163455 L184.650894,33.1163728 L192.798952,33.1163728 L192.798952,34.8503485 L182.915004,34.8503485 L182.915004,17.2594643 Z M195.349648,16.8170015 L197.002878,16.8170015 L197.002878,34.8503485 L195.349648,34.8503485 L195.349648,16.8170015 Z M211.256074,30.533347 L212.64951,31.2747711 C212.192902,32.183618 211.665448,32.9170625 211.067134,33.4751264 C210.468819,34.0331903 209.795725,34.4577112 209.047832,34.7487017 C208.299939,35.0396921 207.453652,35.1851852 206.508945,35.1851852 C204.414844,35.1851852 202.777376,34.4896088 201.596493,33.0984352 C200.415609,31.7072615 199.825176,30.1347407 199.825176,28.3808255 C199.825176,26.7305507 200.325076,25.2596757 201.324891,23.9681563 C202.592373,22.3258539 204.288884,21.504715 206.414475,21.504715 C208.603046,21.504715 210.350728,22.3457845 211.657573,24.0279486 C212.586534,25.2158275 213.058881,26.6986609 213.074626,28.4764931 L201.52564,28.4764931 C201.55713,29.991238 202.033413,31.2329117 202.954502,32.2015512 C203.875592,33.1701907 205.013159,33.6545032 206.367239,33.6545032 C207.020662,33.6545032 207.656361,33.538906 208.274357,33.3077081 C208.892353,33.0765102 209.417839,32.7695796 209.850829,32.3869072 C210.28382,32.0042348 210.75223,31.3863876 211.256074,30.533347 Z M211.256074,27.0295203 C211.035642,26.136618 210.71484,25.4231041 210.293659,24.8889572 C209.872477,24.3548103 209.315501,23.9243103 208.622716,23.5974443 C207.929931,23.2705783 207.20173,23.1071477 206.438092,23.1071477 C205.178483,23.1071477 204.096022,23.5177172 203.190678,24.3388684 C202.529383,24.936794 202.029483,25.833669 201.690963,27.0295203 L211.256074,27.0295203 Z M228.626788,24.5421621 L227.316014,25.3672953 C226.182365,23.8445781 224.635431,23.0832308 222.675164,23.0832308 C221.108524,23.0832308 219.807604,23.5934531 218.772362,24.6139128 C217.737121,25.6343726 217.219508,26.8740531 217.219508,28.3329917 C217.219508,29.2817003 217.457649,30.1745892 217.933939,31.0116851 C218.410229,31.848781 219.063641,32.4985171 219.894196,32.9609129 C220.724751,33.4233088 221.655667,33.6545032 222.686972,33.6545032 C224.576386,33.6545032 226.119385,32.893156 227.316014,31.3704387 L228.626788,32.2434058 C228.012729,33.1761698 227.188091,33.8996489 226.152849,34.413865 C225.117608,34.928081 223.93871,35.1851852 222.61612,35.1851852 C220.584999,35.1851852 218.900297,34.531463 217.561962,33.2239989 C216.223627,31.9165349 215.55447,30.3260765 215.55447,28.4525762 C215.55447,27.1929462 215.867399,26.0230226 216.493268,24.9427703 C217.119136,23.8625179 217.9792,23.0194554 219.073486,22.4135575 C220.167772,21.8076595 221.391936,21.504715 222.746016,21.504715 C223.596253,21.504715 224.416955,21.6362567 225.208147,21.899344 C225.999339,22.1624313 226.670464,22.5052368 227.221544,22.9277709 C227.772623,23.3503051 228.241033,23.8884301 228.626788,24.5421621 Z M233.244021,17.0083368 L234.909059,17.0083368 L234.909059,21.8395517 L237.530608,21.8395517 L237.530608,23.2745661 L234.909059,23.2745661 L234.909059,34.8503485 L233.244021,34.8503485 L233.244021,23.2745661 L230.988544,23.2745661 L230.988544,21.8395517 L233.244021,21.8395517 L233.244021,17.0083368 Z M239.372777,21.8395517 L241.061433,21.8395517 L241.061433,23.7409457 C241.565277,22.9915456 242.096666,22.431497 242.655618,22.0607831 C243.21457,21.6900692 243.79713,21.504715 244.403317,21.504715 C244.859926,21.504715 245.348017,21.6522012 245.867606,21.9471778 L245.005565,23.3582752 C244.659172,23.2068008 244.367892,23.1310646 244.131715,23.1310646 C243.580636,23.1310646 243.049247,23.360266 242.53753,23.8186757 C242.025814,24.2770853 241.636128,24.9886062 241.368461,25.9532595 C241.163775,26.6946873 241.061433,28.1934651 241.061433,30.4496378 L241.061433,34.8503485 L239.372777,34.8503485 L239.372777,21.8395517 Z M253.354372,21.504715 C255.330384,21.504715 256.967852,22.2301873 258.266824,23.6811535 C259.447708,25.0045622 260.038141,26.5711039 260.038141,28.3808255 C260.038141,30.1985194 259.41425,31.7869847 258.166449,33.146269 C256.918649,34.5055532 255.314639,35.1851852 253.354372,35.1851852 C251.386232,35.1851852 249.778286,34.5055532 248.530486,33.146269 C247.282685,31.7869847 246.658794,30.1985194 246.658794,28.3808255 C246.658794,26.5790762 247.249227,25.0165207 248.430111,23.6931119 C249.729083,22.2341734 251.370487,21.504715 253.354372,21.504715 Z M253.354372,23.1430231 C251.984547,23.1430231 250.807617,23.6572314 249.823547,24.6856635 C248.839477,25.7140956 248.34745,26.9577623 248.34745,28.4167008 C248.34745,29.3574372 248.571814,30.2343816 249.02055,31.0475605 C249.469286,31.8607393 250.075464,32.4885518 250.839102,32.9310168 C251.60274,33.3734818 252.441155,33.5947109 253.354372,33.5947109 C254.267589,33.5947109 255.106004,33.3734818 255.869642,32.9310168 C256.63328,32.4885518 257.239458,31.8607393 257.688194,31.0475605 C258.13693,30.2343816 258.361294,29.3574372 258.361294,28.4167008 C258.361294,26.9577623 257.867299,25.7140956 256.879293,24.6856635 C255.891286,23.6572314 254.716325,23.1430231 253.354372,23.1430231 Z M254.157369,15.7407407 L256.696256,15.7407407 L253.212667,19.4239442 L251.583055,19.4239442 L254.157369,15.7407407 Z M263.108424,21.8395517 L264.761653,21.8395517 L264.761653,24.17145 C265.422948,23.2785478 266.155085,22.6108742 266.958086,22.1684092 C267.761087,21.7259442 268.634928,21.504715 269.579635,21.504715 C270.540087,21.504715 271.392278,21.7518539 272.136235,22.2461391 C272.880192,22.7404243 273.429295,23.4061049 273.78356,24.2432008 C274.137825,25.0802967 274.314955,26.383755 274.314955,28.1536149 L274.314955,34.8503485 L272.673535,34.8503485 L272.673535,28.6439114 C272.673535,27.1451112 272.610555,26.1445973 272.484594,25.6423398 C272.28778,24.7813268 271.917776,24.1335838 271.374569,23.6990912 C270.831362,23.2645985 270.122843,23.0473555 269.248989,23.0473555 C268.249174,23.0473555 267.353684,23.3821888 266.562492,24.0518655 C265.771299,24.7215422 265.24975,25.5506533 264.997828,26.5392237 C264.840377,27.1849834 264.761653,28.3648723 264.761653,30.0789258 L264.761653,34.8503485 L263.108424,34.8503485 L263.108424,21.8395517 Z M278.436219,16.4821648 C278.814102,16.4821648 279.136872,16.6176926 279.404539,16.8887522 C279.672206,17.1598118 279.806037,17.486673 279.806037,17.8693454 C279.806037,18.2440454 279.672206,18.5669204 279.404539,18.83798 C279.136872,19.1090397 278.814102,19.2445674 278.436219,19.2445674 C278.066209,19.2445674 277.747375,19.1090397 277.479708,18.83798 C277.212041,18.5669204 277.078209,18.2440454 277.078209,17.8693454 C277.078209,17.486673 277.212041,17.1598118 277.479708,16.8887522 C277.747375,16.6176926 278.066209,16.4821648 278.436219,16.4821648 Z M277.609604,21.8395517 L279.274642,21.8395517 L279.274642,34.8503485 L277.609604,34.8503485 L277.609604,21.8395517 Z M295.169259,24.5421621 L293.858485,25.3672953 C292.724836,23.8445781 291.177902,23.0832308 289.217634,23.0832308 C287.650995,23.0832308 286.350074,23.5934531 285.314833,24.6139128 C284.279591,25.6343726 283.761978,26.8740531 283.761978,28.3329917 C283.761978,29.2817003 284.00012,30.1745892 284.47641,31.0116851 C284.952699,31.848781 285.606112,32.4985171 286.436667,32.9609129 C287.267222,33.4233088 288.198138,33.6545032 289.229443,33.6545032 C291.118857,33.6545032 292.661856,32.893156 293.858485,31.3704387 L295.169259,32.2434058 C294.5552,33.1761698 293.730561,33.8996489 292.69532,34.413865 C291.660078,34.928081 290.48118,35.1851852 289.158591,35.1851852 C287.12747,35.1851852 285.442768,34.531463 284.104433,33.2239989 C282.766098,31.9165349 282.096941,30.3260765 282.096941,28.4525762 C282.096941,27.1929462 282.40987,26.0230226 283.035739,24.9427703 C283.661607,23.8625179 284.521671,23.0194554 285.615957,22.4135575 C286.710242,21.8076595 287.934407,21.504715 289.288487,21.504715 C290.138723,21.504715 290.959425,21.6362567 291.750618,21.899344 C292.54181,22.1624313 293.212935,22.5052368 293.764014,22.9277709 C294.315094,23.3503051 294.783504,23.8884301 295.169259,24.5421621 Z M304.427342,21.504715 C306.403354,21.504715 308.040822,22.2301873 309.339794,23.6811535 C310.520678,25.0045622 311.111111,26.5711039 311.111111,28.3808255 C311.111111,30.1985194 310.48722,31.7869847 309.23942,33.146269 C307.991619,34.5055532 306.387609,35.1851852 304.427342,35.1851852 C302.459202,35.1851852 300.851256,34.5055532 299.603456,33.146269 C298.355655,31.7869847 297.731764,30.1985194 297.731764,28.3808255 C297.731764,26.5790762 298.322197,25.0165207 299.503081,23.6931119 C300.802053,22.2341734 302.443457,21.504715 304.427342,21.504715 Z M304.427342,23.1430231 C303.057517,23.1430231 301.880587,23.6572314 300.896517,24.6856635 C299.912447,25.7140956 299.42042,26.9577623 299.42042,28.4167008 C299.42042,29.3574372 299.644784,30.2343816 300.09352,31.0475605 C300.542256,31.8607393 301.148434,32.4885518 301.912072,32.9310168 C302.67571,33.3734818 303.514125,33.5947109 304.427342,33.5947109 C305.340559,33.5947109 306.178974,33.3734818 306.942612,32.9310168 C307.70625,32.4885518 308.312428,31.8607393 308.761164,31.0475605 C309.2099,30.2343816 309.434264,29.3574372 309.434264,28.4167008 C309.434264,26.9577623 308.940269,25.7140956 307.952263,24.6856635 C306.964257,23.6572314 305.789295,23.1430231 304.427342,23.1430231 Z" id="DirectorioElectrónico" fill="#FFFFFF" fill-rule="nonzero"></path>
                <g id="Group-12" fill="#02A8A0">
                    <path d="M20.2472059,2.2477088 C22.3710304,3.93906053 23.5670776,6.16812524 23.9613712,8.79570278 C33.0089622,6.99424791 39.7389911,10.0564186 44.2741898,18.0171312 C46.983224,16.2969152 49.9457158,15.8346217 53.0831356,16.8013412 C55.3487365,17.499437 57.1586779,18.8490733 58.471579,20.8076521 C61.1721489,24.8365422 60.6231474,30.1440719 57.2310944,33.5216543 C53.9641243,36.7749342 48.0920423,37.895286 43.2921003,34.0335291 C40.856744,37.8140471 37.4825599,40.3724901 33.0924292,41.5314827 C28.6943045,42.6930359 24.485215,42.1127248 20.4124941,39.9879439 C20.1665603,43.8527268 18.4675948,46.815502 15.088003,48.7142574 C12.8929376,49.9475056 10.504605,50.304817 8.04550166,49.7375414 C2.62884407,48.48893 -0.726060313,43.5952763 0.134002777,38.2465453 C0.968202843,33.0586625 6.16032237,28.7914095 12.3114898,30.0051045 C11.3484449,26.681759 11.3693704,23.3849499 12.3881384,20.1100219 C5.81846022,18.9014479 3.39203838,13.2882831 3.6760614,9.47354702 C4.06823888,4.20628759 8.16987929,0.460453275 12.9105715,0.0442494624 C15.6497008,-0.195975557 18.1064529,0.542390491 20.2472059,2.2477088 Z M5.15331028,46.4079109 C7.61664571,48.7210079 12.5698849,48.7277584 15.2532912,46.3895216 C12.5708254,42.5219454 7.09797453,43.1490444 5.15331028,46.4079109 Z M3.6440853,34.8717562 C0.800093191,38.4816492 1.82920641,43.1169213 3.80725747,45.0056672 C6.97477249,41.0119263 13.1449845,40.6983768 16.6625908,45.0587402 C19.437223,41.8124436 19.1828249,36.5684618 15.4686596,33.5304998 C11.8929791,30.6056671 6.53956834,31.1966858 3.6440853,34.8717562 Z M10.2345715,33.734598 C12.2109767,33.7497284 13.7794515,35.3407536 13.7682264,37.3188856 C13.756645,39.3128464 12.1474947,40.870119 10.1205391,40.8487036 C8.142488,40.8277538 6.56719475,39.2339353 6.5788853,37.2651143 C6.59047147,35.2818612 8.20832115,33.7192347 10.2345715,33.734598 Z M20.6271572,34.4285503 C19.8272844,35.2116094 19.2284379,35.9301895 19.9128675,37.1008209 C20.1091914,37.4369497 20.2366256,37.7514303 20.5947109,37.9723349 C22.9729335,39.4425493 25.5559441,40.2363161 28.3573798,40.2931134 C32.1909853,40.3708607 35.5701068,39.1550707 38.5544646,36.7274479 C38.4846345,36.6001193 38.4510125,36.5302865 38.4101019,36.4648764 C34.579553,30.3221457 25.8350297,29.3321486 20.6271572,34.4285503 Z M10.1511044,35.5739954 C9.19534817,35.5849358 8.44626096,36.3344751 8.44602579,37.2809431 C8.44579073,38.2511542 9.21603859,39.0009263 10.2049466,38.9932447 C11.1639945,38.9857958 11.9055579,38.2420759 11.9050879,37.2879264 C11.9048526,36.3100336 11.1402475,35.5628221 10.1511044,35.5739954 Z M24.6307533,10.6374279 C24.1327725,10.7763953 23.9656033,11.0012571 23.8906006,11.4826382 C23.1476264,16.2512911 19.568184,19.6041992 14.7174564,20.1307389 C14.5411176,20.1498266 14.2904814,20.3330214 14.236169,20.4934042 C13.0911424,23.8763405 13.2166956,27.2380941 14.4736386,30.567259 C14.5357098,30.731599 14.6779565,30.9092072 14.8312537,30.9897478 C16.2367914,31.7306744 17.417556,32.729517 18.436324,34.0498235 C21.4216223,30.7446345 25.0894692,29.0760948 29.5148677,29.344253 C33.9574298,29.6133422 37.4037952,31.7218289 39.9985618,35.4348418 C40.5962328,34.588002 41.1344188,33.8095985 41.6914143,33.0442304 C41.9166577,32.7344053 41.9049018,32.5037241 41.6728399,32.1752769 C38.9482879,28.3216672 39.2297247,23.2676308 42.3589154,19.7631853 C42.6278908,19.461973 42.6812627,19.2345506 42.505159,18.851401 C39.4387449,12.1735179 31.759543,8.64812268 24.6307533,10.6374279 Z M44.9445124,32.9222557 C47.8355282,35.4420578 52.7278717,35.0933591 55.016044,32.8845459 C52.7386872,29.3738155 47.0175513,29.395231 44.9445124,32.9222557 Z M44.1053748,20.5283207 C41.045544,23.4778276 40.751646,28.5679444 43.51993,31.5414273 C45.2040831,29.4853153 47.3297885,28.3682224 49.9903883,28.372878 C52.6441696,28.377999 54.7510655,29.531405 56.4088853,31.5393324 C59.1435474,28.5160353 58.8000394,23.4089259 55.7108188,20.4899126 C52.4222178,17.3821178 47.3514194,17.3991104 44.1053748,20.5283207 Z M28.6927997,16.1681202 C31.8245768,16.1681202 34.3323496,18.6502126 34.3290611,21.7466014 C34.3255311,24.839964 31.8074131,27.3299708 28.6862164,27.3262506 C25.5901774,27.3227548 23.0461963,24.7824683 23.0616435,21.7107538 C23.0774671,18.6609203 25.6096922,16.1683529 28.6927997,16.1681202 Z M49.9923868,20.2178658 C51.9798426,20.2197293 53.5835851,21.7972534 53.5857037,23.7523406 C53.5880524,25.7244204 51.946926,27.3408182 49.957119,27.3259205 C47.9863566,27.3110229 46.4002479,25.7116177 46.4063434,23.7451245 C46.4127092,21.7721136 47.9945858,20.2162376 49.9923868,20.2178658 Z M28.6570617,18.1145926 C26.5880199,18.1169224 24.9219709,19.7649777 24.9271315,21.8047954 C24.932081,23.8297154 26.6277549,25.4866163 28.6862164,25.4775751 C30.7141126,25.4689253 32.3674651,23.8222666 32.3750162,21.8043298 C32.3827478,19.75008 30.7324518,18.1124996 28.6570617,18.1145926 Z M49.9947379,22.0635295 C49.0307525,22.0591267 48.2786088,22.7921388 48.2706148,23.7434951 C48.2626207,24.6894975 49.0074758,25.456495 49.9533571,25.4767465 C50.914286,25.4969981 51.7233284,24.7085851 51.7184134,23.7565306 C51.7139237,22.8191409 50.9488484,22.0679721 49.9947379,22.0635295 Z M8.81269298,16.5802038 C11.3197604,18.9061034 16.1091221,18.9182078 18.9166709,16.57904 C16.3686929,12.8122558 10.9040711,13.2000609 8.81269298,16.5802038 Z M7.63216352,4.61574089 C4.45101163,8.18559641 5.29884857,13.0152366 7.41561948,15.1819173 C10.8347112,10.9104744 17.0794558,11.0957642 20.3113932,15.2196271 C22.87677,12.2463769 22.9466002,7.14531965 19.4365177,3.99841846 C15.9892118,0.908081872 10.6809438,1.19346547 7.63216352,4.61574089 Z M13.855818,3.88131651 C15.845625,3.87551263 17.4898079,5.50657534 17.4747603,7.47120631 C17.4597127,9.41558575 15.8331637,11.0196464 13.8722763,11.0245436 C11.8895228,11.0289575 10.2373459,9.38741983 10.2542744,7.42953937 C10.2707327,5.47654721 11.88388,3.88738422 13.855818,3.88131651 Z M13.9042524,5.73795486 C12.9461449,5.70955617 12.1239359,6.49610688 12.1177947,7.44676481 C12.1124151,8.36925681 12.8894814,9.16092861 13.8219609,9.18234402 C14.781244,9.2039922 15.5982804,8.42256256 15.6100363,7.47190464 C15.621322,6.55220594 14.8480176,5.76612078 13.9042524,5.73795486 Z" id="Combined-Shape"></path>
                </g>
            </g>
        </g>
    </g>
</svg>