<?xml version="1.0" encoding="UTF-8"?>
<svg width="16px" height="14px" viewBox="0 0 16 14" version="1.1" xmlns="http://www.w3.org/2000/svg" xmlns:xlink="http://www.w3.org/1999/xlink">
    <!-- Generator: Sketch 61.2 (89653) - https://sketch.com -->
    <title>logout (2)</title>
    <desc>Created with Sketch.</desc>
    <g id="SIMBOLOS" stroke="none" stroke-width="1" fill="none" fill-rule="evenodd">
        <g id="header" transform="translate(-1384.000000, -22.000000)" fill="#02A8A0" fill-rule="nonzero">
            <g id="logout-(2)" transform="translate(1384.000000, 22.000000)">
                <path d="M6.78854008,0 C9.2913814,0 11.4909141,1.40029067 12.6685782,3.49960295 C12.7890937,3.71449059 12.7178945,3.98946046 12.5094988,4.11376027 C12.3011902,4.23797018 12.0344402,4.16464288 11.9138955,3.94972527 C10.8905739,2.12556267 8.97732021,0.898986072 6.78854008,0.898986072 C3.52607577,0.898986072 0.871827131,3.63594917 0.871827131,7.00001498 C0.871827131,10.3640808 3.52607577,13.1010139 6.78856914,13.100984 C8.97589623,13.100984 10.8899636,11.875606 11.9139537,10.0502148 C12.0345274,9.83529719 12.3012193,9.76193993 12.5095569,9.8861798 C12.7179526,10.0105096 12.7891519,10.2854495 12.6686363,10.5003371 C11.4914372,12.5987204 9.29245666,14 6.78854008,14 C3.03616704,14 0,10.8689514 0,7.00001498 C0,3.13074896 3.03648671,0 6.78854008,0 Z M12.7272727,5.62541802 C12.7272727,5.19318354 13.1394661,4.94026373 13.4372013,5.18905482 L13.4372013,5.18905482 L15.0820713,6.56370568 C15.3359389,6.77594334 15.3366295,7.22362493 15.0820412,7.43639648 L15.0820412,7.43639648 L13.4371713,8.81101175 C13.1403368,9.05898421 12.7272727,8.80866265 12.7272727,8.37464855 L12.7272727,8.37464855 Z M11.4545455,6.36363636 L11.4545455,7.63636364 L4.28000092,7.63636364 C4.02495363,7.63636364 3.81818182,7.35144242 3.81818182,7 C3.81818182,6.64851515 4.02495363,6.36363636 4.28000092,6.36363636 L4.28000092,6.36363636 L11.4545455,6.36363636 Z" id="Combined-Shape"></path>
            </g>
        </g>
    </g>
</svg>