<?xml version="1.0" encoding="UTF-8"?>
<svg width="24px" height="23px" viewBox="0 0 24 23" version="1.1" xmlns="http://www.w3.org/2000/svg" xmlns:xlink="http://www.w3.org/1999/xlink">
    <!-- Generator: Sketch 61.2 (89653) - https://sketch.com -->
    <title>Path</title>
    <desc>Created with Sketch.</desc>
    <g id="Directorio-Electrónico" stroke="none" stroke-width="1" fill="none" fill-rule="evenodd">
        <g id="Funcionario_perfil" transform="translate(-282.000000, -513.000000)" fill-rule="nonzero" stroke="#FED65D">
            <g id="Group-7" transform="translate(177.000000, 488.000000)">
                <g id="Group-6" transform="translate(-0.000000, 26.000000)">
                    <path d="M127.58061,8.08421311 C127.534143,7.93976665 127.410886,7.83442449 127.262426,7.8124782 L120.138724,6.76344581 L116.952945,0.22265503 C116.886788,0.086189044 116.749748,-4.40536496e-13 116.600107,-4.40536496e-13 C116.450466,-4.40536496e-13 116.313032,0.086189044 116.247269,0.22265503 L113.061096,6.76384484 L105.937394,7.81287723 C105.788934,7.83482351 105.666071,7.93976665 105.61921,8.08461213 C105.573136,8.22865956 105.611334,8.38747085 105.718839,8.49321204 L110.873974,13.58475 L109.656762,20.7743528 C109.631559,20.9239865 109.692203,21.0752164 109.813097,21.1645976 C109.934779,21.2547769 110.09584,21.2663486 110.227761,21.1949234 L116.600107,17.8008307 L122.971665,21.1949234 C123.029159,21.2256482 123.09256,21.2408111 123.155173,21.2408111 C123.236688,21.2408111 123.317809,21.2152736 123.386722,21.1645976 C123.50801,21.0752164 123.568655,20.9239865 123.543058,20.7743528 L122.32624,13.585149 L127.481374,8.49321204 C127.588486,8.38667281 127.627077,8.22826054 127.58061,8.08421311 Z" id="Path"></path>
                </g>
            </g>
        </g>
    </g>
</svg>