<?xml version="1.0" encoding="UTF-8"?>
<svg width="22px" height="22px" viewBox="0 0 22 22" version="1.1" xmlns="http://www.w3.org/2000/svg" xmlns:xlink="http://www.w3.org/1999/xlink">
    <!-- Generator: Sketch 61.2 (89653) - https://sketch.com -->
    <title>star</title>
    <desc>Created with Sketch.</desc>
    <g id="Directorio-Electrónico" stroke="none" stroke-width="1" fill="none" fill-rule="evenodd">
        <g id="Funcionario_perfil" transform="translate(-177.000000, -514.000000)" fill="#FED65D" fill-rule="nonzero">
            <g id="Group-7" transform="translate(177.000000, 488.000000)">
                <g id="Group-6" transform="translate(-0.000000, 26.000000)">
                    <path d="M21.98061,8.08421311 C21.9341425,7.93976665 21.8108855,7.83442449 21.6624258,7.8124782 L14.538724,6.76344581 L11.3529446,0.22265503 C11.2867875,0.086189044 11.1497478,-4.38760139e-13 11.0001068,-4.38760139e-13 C10.8504657,-4.38760139e-13 10.7130322,0.086189044 10.6472689,0.22265503 L7.46109578,6.76384484 L0.337393898,7.81287723 C0.188934218,7.83482351 0.0660710344,7.93976665 0.0192097562,8.08461213 C-0.0268639376,8.22865956 0.0113339111,8.38747085 0.118839197,8.49321204 L5.2739736,13.58475 L4.05676174,20.7743528 C4.03155904,20.9239865 4.09220304,21.0752164 4.21309726,21.1645976 C4.33477907,21.2547769 4.4958401,21.2663486 4.62776051,21.1949234 L11.0001068,17.8008307 L17.3716654,21.1949234 C17.4291591,21.2256482 17.4925597,21.2408111 17.5551726,21.2408111 C17.6366876,21.2408111 17.7178088,21.2152736 17.7867225,21.1645976 C17.9080105,21.0752164 17.9686545,20.9239865 17.943058,20.7743528 L16.7262399,13.585149 L21.8813743,8.49321204 C21.9884858,8.38667281 22.0270775,8.22826054 21.98061,8.08421311 Z" id="star"></path>
                </g>
            </g>
        </g>
    </g>
</svg>