<svg xmlns="http://www.w3.org/2000/svg" viewBox="0 0 22 21.24"><defs><style>.cls-1{fill:#fed65d;}</style></defs><title>star3</title><g id="Capa_2" data-name="Capa 2"><g id="Capa_1-2" data-name="Capa 1"><g id="Directorio-Electrónico"><g id="Funcionario_perfil" data-name="Funcionario perfil"><g id="Group-7"><g id="Group-6"><path id="star" class="cls-1" d="M22,8.08a.4.4,0,0,0-.32-.27l-7.12-1L11.35.22a.39.39,0,0,0-.7,0L7.46,6.76l-7.12,1A.4.4,0,0,0,0,8.08a.39.39,0,0,0,.1.41l5.15,5.09L4.06,20.77a.38.38,0,0,0,.15.39.38.38,0,0,0,.42,0L11,17.8l6.37,3.39a.32.32,0,0,0,.19,0,.34.34,0,0,0,.23-.08.38.38,0,0,0,.15-.39l-1.21-7.18,5.15-5.1A.39.39,0,0,0,22,8.08Z"/></g></g></g></g></g></g></svg>