<?xml version="1.0" encoding="UTF-8"?>
<svg width="43px" height="40px" viewBox="0 0 43 40" version="1.1" xmlns="http://www.w3.org/2000/svg" xmlns:xlink="http://www.w3.org/1999/xlink">
    <!-- Generator: Sketch 61.2 (89653) - https://sketch.com -->
    <title>Group 9</title>
    <desc>Created with Sketch.</desc>
    <defs>
        <polygon id="path-1" points="0 0.0863725091 42.7733262 0.0863725091 42.7733262 36.2146578 0 36.2146578"></polygon>
        <polygon id="path-3" points="0.058902439 0.0598070506 15.4700949 0.0598070506 15.4700949 18.2046453 0.058902439 18.2046453"></polygon>
    </defs>
    <g id="Directorio-Electrónico" stroke="none" stroke-width="1" fill="none" fill-rule="evenodd">
        <g id="Nuevo-Funcionario" transform="translate(-220.000000, -491.000000)">
            <g id="Group-9" transform="translate(220.000000, 491.000000)">
                <g id="Group-3">
                    <mask id="mask-2" fill="white">
                        <use xlink:href="#path-1"></use>
                    </mask>
                    <g id="Clip-2"></g>
                    <path d="M42.7723793,5.20802955 C42.7716155,2.20578046 40.6299595,0.0902517751 37.5742426,0.0891233928 C26.7708714,0.0853621186 15.9676912,0.0855501823 5.16432,0.0891233928 C2.12712494,0.0900637114 0.00150847737,2.19092343 0.00093563786,5.17944387 C-6.68312757e-05,13.813825 -6.68312757e-05,22.4482061 0.00093563786,31.0825872 C0.00150847737,34.0643374 2.18670025,36.215034 5.20556444,36.2146578 C13.2722904,36.2131533 21.3392072,36.2127772 29.4059332,36.2120249 L30.0904764,36.2120249 C29.8785258,35.9951875 29.7544105,35.8641071 29.6257126,35.7377283 C28.7918492,34.919275 27.9453834,34.1130459 27.129278,33.2776669 C26.8623348,33.0042222 26.5896632,32.9103784 26.2113982,32.9109426 C19.2263842,32.9210981 12.2417521,32.9194055 5.25692905,32.9171487 C3.99725498,32.9167726 3.34440889,32.2683289 3.34421794,31.034819 C3.34383605,28.5745696 3.33810765,26.1143201 3.35338337,23.6538826 C3.35472,23.4223761 3.43549037,23.1566421 3.56705251,22.9651932 C5.45704099,20.2145734 7.36173235,17.4737329 9.26432329,14.731764 C9.66244675,14.1577935 10.0664895,13.5881485 10.496883,12.9750608 C11.5383052,14.2533299 12.5214887,15.4827024 13.5346509,16.6878146 C13.7844089,16.9851434 13.784027,17.1779087 13.5604286,17.4912228 C11.4376764,20.464322 9.33287309,23.4498334 7.22444181,26.432712 C6.61856856,27.2899064 6.01765992,28.1504859 5.39288296,29.0402153 C6.33329449,29.6832051 7.22616033,30.293848 8.1364023,30.9163389 C11.5963529,26.0191599 15.0186871,21.1746386 18.4759644,16.2812209 C20.918743,19.3953679 23.3237142,22.4615586 25.6906871,25.4790409 C26.5094657,24.6797701 27.2833719,23.9243182 28.0819101,23.144606 C24.8619793,19.0320288 21.6231447,14.8953794 18.3445933,10.7081409 C17.4828517,11.9203995 16.6671282,13.0679643 15.8260089,14.2512612 C13.9606525,11.9576362 12.1394048,9.71817348 10.2816863,7.43376358 C7.96455045,10.7692616 5.7018344,14.026525 3.4393093,17.2837885 C3.40742123,17.2693076 3.37572412,17.2550148 3.344027,17.2405339 L3.344027,16.8279221 C3.344027,12.9573828 3.34345416,9.08665554 3.34440889,5.21611629 C3.34479078,3.98166609 3.95849284,3.38230704 5.22981465,3.38230704 C15.9852583,3.38249511 26.7408928,3.38381155 37.4965274,3.38663251 C38.8188319,3.38682057 39.4292879,3.98900058 39.4292879,5.27986989 C39.4298607,10.2944007 39.4357801,15.3089315 39.4193587,20.3236504 C39.4178311,20.7964425 39.5327809,21.1368378 39.8879414,21.4710271 C40.8375184,22.3648939 41.7445142,23.3025795 42.6685044,24.2229633 C42.7034476,24.1992673 42.7380089,24.1755713 42.7733262,24.1518753 L42.7733262,23.6835966 C42.7733262,17.5250743 42.7740978,11.3665519 42.7723793,5.20802955" id="Fill-1" fill="#FFFFFF" mask="url(#mask-2)"></path>
                </g>
                <g id="Group-6" transform="translate(26.666667, 21.481481)">
                    <mask id="mask-4" fill="white">
                        <use xlink:href="#path-3"></use>
                    </mask>
                    <g id="Clip-5"></g>
                    <path d="M0.058902439,7.83280735 C0.793617886,8.58437176 1.55356369,9.36142267 2.41613821,10.2434856 C3.60917344,9.0078693 4.81302168,7.76075528 6.08326558,6.44523012 L6.08326558,18.2046645 L9.41044715,18.2046645 L9.41044715,6.51862358 C9.44573171,6.49773615 9.48101626,6.47704034 9.51630081,6.45634453 C10.7338076,7.70920739 11.9515041,8.9624535 13.140935,10.1859973 C13.9716396,9.35720686 14.7334824,8.5970192 15.4700949,7.86212641 C12.8926152,5.25407143 10.3084959,2.63911785 7.75966125,0.0598070506 C5.19014905,2.65348994 2.60356369,5.26441933 0.058902439,7.83280735" id="Fill-4" fill="#FFFFFF" mask="url(#mask-4)"></path>
                </g>
                <path d="M31.8502769,12.8347692 C30.922767,12.829411 30.1282102,12.0256862 30.1309687,11.095151 C30.1337416,10.1383452 30.896295,9.38716173 31.8629202,9.38952642 C32.8321137,9.39170478 33.5816285,10.1442709 33.5757019,11.1093728 C33.570368,12.0545247 32.7845035,12.8398798 31.8502769,12.8347692 M37.0370297,11.1220143 C37.0417637,8.2423131 34.7479795,5.93207337 31.8777367,5.925938 C29.0114449,5.91982689 26.6730138,8.23342453 26.6666794,11.0815219 C26.6603705,13.9207307 29.0011721,16.2811415 31.8382261,16.2962251 C34.6814043,16.3111651 37.031886,13.9716918 37.0370297,11.1220143" id="Fill-7" fill="#FFFFFF"></path>
            </g>
        </g>
    </g>
</svg>