<?xml version="1.0" encoding="UTF-8"?>
<svg width="25px" height="14px" viewBox="0 0 25 14" version="1.1" xmlns="http://www.w3.org/2000/svg" xmlns:xlink="http://www.w3.org/1999/xlink">
    <!-- Generator: Sketch 61.2 (89653) - https://sketch.com -->
    <title>Group 6</title>
    <desc>Created with Sketch.</desc>
    <defs>
        <polygon id="path-1" points="2.55471654e-05 0.108506503 24.8925726 0.108506503 24.8925726 14 2.55471654e-05 14"></polygon>
    </defs>
    <g id="Directorio-Electrónico" stroke="none" stroke-width="1" fill="none" fill-rule="evenodd">
        <g id="Funcionario_perfil" transform="translate(-1090.000000, -234.000000)">
            <g id="Group-6" transform="translate(1090.000000, 234.000000)">
                <mask id="mask-2" fill="white">
                    <use xlink:href="#path-1"></use>
                </mask>
                <g id="Clip-2"></g>
                <path d="M7.58072222,1.96030625 C7.53838889,1.97211875 7.49505556,1.98119687 7.45383333,1.9964 C4.97661111,2.9099 2.92994444,4.40615 1.27738889,6.43155625 C0.909833333,6.8819625 0.929277778,7.25624375 1.32205556,7.73388437 C2.8225,9.55836875 4.66238889,10.9449156 6.85172222,11.8785406 C7.0935,11.9816812 7.34261111,12.0680875 7.58827778,12.1622594 C6.17661111,10.7326187 5.40627778,9.05043125 5.40116667,7.07282187 C5.39594444,5.08372812 6.16294444,3.39082187 7.58072222,1.96030625 M17.2691667,12.1219 C17.3182778,12.1325094 17.3373889,12.1427906 17.3527222,12.1389625 C17.3972778,12.1279156 17.4406111,12.1124937 17.4836111,12.0964156 C19.9466111,11.1765719 21.9832778,9.68294687 23.6269444,7.66410312 C23.9730556,7.2389625 23.9676111,6.85943125 23.6149444,6.42729062 C21.9808333,4.42550937 19.9578333,2.94304062 17.5170556,2.0222125 C17.4491667,1.99672812 17.3776111,1.98086875 17.3077222,1.96041562 C18.7221667,3.3889625 19.4920556,5.0694 19.4956111,7.04941562 C19.4992778,9.03850937 18.7121667,10.7197125 17.2691667,12.1219 M18.491389,7.0539 C18.4919444,3.79529063 15.7455,1.09449375 12.4410556,1.10420189 C9.13338889,1.11385312 6.42561111,3.77582188 6.40394444,7.03957188 C6.38238889,10.2862594 9.12094444,12.99165 12.4402778,13.0028407 C15.7440556,13.0139625 18.4908333,10.3134938 18.491389,7.0539 M12.6016111,14.0000875 C8.83294444,13.9636656 5.62161111,12.8441031 2.81638889,10.6278375 C1.9275,9.92565 1.12638889,9.12688437 0.429611111,8.23285312 C-0.125388889,7.52093125 -0.153722222,6.60480625 0.4095,5.9059 C2.82572222,2.90738437 5.94038889,1.00032187 9.77227778,0.351071875 C14.2145,-0.401646875 18.2590556,0.60165 21.8492778,3.30288437 C22.8388333,4.04750937 23.7080556,4.918025 24.4729444,5.8862125 C25.0507222,6.6177125 25.0282778,7.54215 24.4277222,8.27769687 C22.3148333,10.8652906 19.6433889,12.6158375 16.3825,13.4871187 C15.0880556,13.8328531 13.7682778,13.974275 12.6016111,14.0000875" id="Fill-1" fill="#02A69E" mask="url(#mask-2)"></path>
                <path d="M10.9868892,7.3607645 C10.9913244,8.18832221 11.6684652,8.83966911 12.5176638,8.8328106 C13.3495274,8.82616313 14.012025,8.17038458 14.0129953,7.3525343 C14.0140707,6.52276077 13.3427441,5.86561052 12.4958066,5.86729552 C11.6500535,5.86898701 10.9826031,6.52961927 10.9868892,7.3607645 M12.4924689,4.90001923 C13.8834662,4.89476283 14.9879519,5.96785499 14.9999034,7.3361794 C15.0119625,8.70577 13.8939103,9.80503 12.4939762,9.79998269 C11.0996411,9.79500603 10.0005389,8.71558293 10.0000003,7.35063502 C9.99935454,5.98674226 11.0993181,4.90531437 12.4924689,4.90001923" id="Fill-4" fill="#02A69E" mask="url(#mask-2)"></path>
            </g>
        </g>
    </g>
</svg>